<svg width="19" height="19" viewBox="0 0 19 19" fill="none" xmlns="http://www.w3.org/2000/svg"><g clip-path="url(#clip0)" fill="#F4A876"><path d="M17.348 3.717V2.065A2.068 2.068 0 0015.283 0H13.63a2.068 2.068 0 00-2.065 2.065v1.652c0 1.139.927 2.066 2.065 2.066h1.652a2.068 2.068 0 002.066-2.066zm-3.718 1.24a1.24 1.24 0 01-1.239-1.24V2.065a1.24 1.24 0 011.24-1.239h1.652a1.24 1.24 0 011.239 1.24v1.651a1.24 1.24 0 01-1.24 1.24H13.63zM7.435 16.935v-1.652a2.068 2.068 0 00-2.065-2.066H3.717a2.068 2.068 0 00-2.065 2.066v1.652c0 1.138.927 2.065 2.065 2.065H5.37a2.068 2.068 0 002.065-2.065zm-3.718 1.239a1.24 1.24 0 01-1.239-1.24v-1.652a1.24 1.24 0 011.24-1.239H5.37a1.24 1.24 0 011.239 1.24v1.652a1.24 1.24 0 01-1.24 1.239H3.718zm8.674-7.848V8.674a2.068 2.068 0 00-2.065-2.065H8.674a2.068 2.068 0 00-2.065 2.065v1.652c0 1.138.927 2.065 2.065 2.065h1.652a2.068 2.068 0 002.065-2.065zm-3.717 1.24a1.24 1.24 0 01-1.24-1.24V8.674c0-.683.557-1.24 1.24-1.24h1.652c.683 0 1.24.557 1.24 1.24v1.652a1.24 1.24 0 01-1.24 1.24H8.674z"/><path d="M19 2.891a.413.413 0 00-.413-.413h-1.652a.413.413 0 000 .826h1.652A.413.413 0 0019 2.891zm-6.609 0a.413.413 0 00-.413-.413H.413a.413.413 0 000 .826h11.565a.413.413 0 00.413-.413zM7.435 9.5a.413.413 0 00-.413-.413H.413a.413.413 0 000 .826h6.609a.413.413 0 00.413-.413zM19 9.5a.413.413 0 00-.413-.413h-6.609a.413.413 0 000 .826h6.609A.413.413 0 0019 9.5zm0 6.609a.413.413 0 00-.413-.413H7.022a.413.413 0 000 .826h11.565a.413.413 0 00.413-.413zm-16.522 0a.413.413 0 00-.413-.413H.413a.413.413 0 000 .826h1.652a.413.413 0 00.413-.413z"/></g><defs><clipPath id="clip0"><path fill="#fff" transform="rotate(90 9.5 9.5)" d="M0 0h19v19H0z"/></clipPath></defs></svg>