<svg width="208" height="52" viewBox="0 0 208 52" fill="none" xmlns="http://www.w3.org/2000/svg"><g clip-path="url(#clip0)"><path d="M4.052 43.761l1.911 3.81 1.817-3.81h.955l-2.39 4.784c-.095.177-.19.443-.382.62-.19.177-.19.355-.382.443-.191.089-.287.266-.478.266-.191.088-.382.088-.669.088-.287 0-.478 0-.67-.088-.19-.089-.286-.089-.381-.177l.477-.62c.096.088.192.088.287.177.096.088.287.088.383.088a.761.761 0 00.478-.177c.19-.177.286-.354.382-.62L3 43.761h1.052zm6.308 3.632c.192 0 .383 0 .574.089l1.434-1.683h.956l-1.625 1.949c.19.088.478.177.669.354.191.177.382.266.478.443.095.177.287.354.382.62l.287.797h-.956c-.096-.354-.191-.62-.287-.886a.93.93 0 00-.478-.531c-.19-.177-.382-.266-.573-.266-.191-.088-.478-.088-.765-.088v1.86H9.5v-4.164h.86v1.506zM15.427 52h-.765v-6.2h.86v.62c.191-.266.383-.443.67-.531.286-.089.573-.178.86-.178.286 0 .669.089.86.178.287.088.478.265.669.443.191.177.382.442.478.708.096.266.191.532.191.886s-.095.62-.191.886a1.914 1.914 0 01-.478.709c-.191.177-.382.354-.67.443-.286.088-.573.177-.86.177-.286 0-.573-.089-.86-.177-.286-.089-.478-.355-.669-.532v2.57h-.095zm2.963-4.163c0-.178 0-.355-.096-.532-.095-.177-.19-.354-.287-.443-.095-.177-.286-.266-.477-.354-.192-.089-.383-.089-.67-.089-.19 0-.382 0-.573.089-.191.088-.382.177-.478.354-.096.177-.191.266-.287.443-.095.177-.095.354-.095.62s0 .443.095.62c.096.177.191.355.287.443.096.177.287.266.478.355.191.088.382.088.573.088.192 0 .478 0 .67-.088.19-.09.382-.178.477-.355.096-.177.192-.266.287-.443 0-.354.096-.531.096-.709zm4.78-.621c0-.354-.096-.531-.288-.708-.19-.177-.477-.266-.764-.266-.287 0-.478 0-.67.089-.19.088-.382.177-.573.354l-.478-.354a2.09 2.09 0 01.765-.443 3.68 3.68 0 011.051-.178c.287 0 .478 0 .67.089l.573.266c.191.088.287.266.382.443.096.177.096.443.096.708v2.747h-.765v-.532c-.19.266-.382.443-.669.532-.287.088-.573.177-.86.177-.191 0-.383 0-.478-.089a.761.761 0 01-.478-.177c-.191-.089-.287-.266-.382-.354-.096-.178-.192-.355-.192-.62 0-.355.096-.532.287-.71.191-.176.383-.353.67-.442.286-.089.573-.177.955-.177h1.147v-.355zm-.192.71h-.669c-.191 0-.478.088-.67.088-.19.088-.381.177-.477.265a.652.652 0 00-.191.443c0 .089 0 .266.095.355.096.088.096.177.192.177.095.089.19.089.286.089h.287c.191 0 .382 0 .574-.09.19-.088.286-.176.382-.265.096-.088.191-.266.287-.354.095-.177.095-.266.095-.443v-.266h-.19zm2.39 1.948V45.71h.86v3.455h1.72V45.71h.861v3.455h1.72V45.71h.86v4.164h-6.021zm11.566-2.126v.354h-3.441c0 .177 0 .355.095.532.096.177.192.266.287.443.096.088.287.177.478.266.191.088.383.088.574.088.286 0 .573-.088.764-.177.191-.089.383-.266.478-.443l.574.443c-.287.266-.478.531-.86.709-.287.177-.67.177-1.052.177a2.44 2.44 0 01-.86-.177c-.287-.089-.478-.266-.765-.443a1.917 1.917 0 01-.478-.709c-.096-.266-.191-.532-.191-.886s.096-.62.191-.886c.096-.266.287-.531.478-.708.191-.178.478-.355.67-.443.286-.089.573-.178.86-.178.286 0 .669.089.86.178.287.088.478.265.669.443.191.177.287.442.382.62.191.265.287.531.287.797zm-.86-.266c0-.354-.096-.62-.383-.886-.19-.265-.573-.354-.956-.354-.19 0-.382 0-.477.089a1.31 1.31 0 00-.383.265c-.095.089-.191.266-.287.355-.095.177-.095.265-.095.443h2.58v.088zm2.867 2.392h-.86V45.71h.86v1.595h2.199V45.71H42v4.164h-.86v-1.86h-2.2v1.86zm7.839-3.101l-2.486 3.101h-.86V45.71h.86v3.012l2.486-3.012h.86v4.164h-.86v-3.1zm4.301 1.507c-.382 0-.765.176-.956.442-.191.266-.382.709-.478 1.24h-.956c.096-.531.191-.885.383-1.24.19-.354.478-.531.86-.62-.287 0-.573-.088-.765-.266a.965.965 0 01-.286-.708c0-.178 0-.355.095-.532a.721.721 0 01.383-.354c.19-.089.382-.177.573-.177.191-.089.478-.089.765-.089h1.816v4.164h-.86v-1.595h-.574v-.266zm-1.243-1.24c0 .088 0 .176.096.265.096.089.096.177.191.177.096 0 .191.089.383.089h1.147v-1.152h-1.243c-.096 0-.287 0-.382.089-.096 0-.192.088-.192.177v.354zm9.655-.267l-2.486 3.101h-.86V45.71h.86v3.012l2.486-3.012h.86v4.164h-.86v-3.1zm5.448 3.101h-.86V45.71h3.824v4.164h-.86v-3.455H64.94v3.455zm8.89-2.037c0 .354-.096.62-.191.885a1.914 1.914 0 01-.478.709 2.11 2.11 0 01-.765.443c-.287.088-.573.177-.956.177-.382 0-.669-.089-.956-.177a2.111 2.111 0 01-.764-.443 1.915 1.915 0 01-.478-.709c-.096-.265-.191-.531-.191-.886 0-.354.095-.62.19-.885.096-.266.288-.532.479-.71.19-.176.478-.353.764-.442.287-.089.574-.177.956-.177.383 0 .67.088.956.177.287.089.574.266.765.443.191.177.382.443.478.709.095.265.191.62.191.886zm-.86 0c0-.178 0-.444-.096-.62-.095-.178-.191-.355-.287-.444-.095-.177-.286-.265-.477-.354-.192-.088-.383-.088-.574-.088-.191 0-.478 0-.574.088-.19.089-.382.177-.477.354-.096.178-.192.266-.287.443-.096.178-.096.355-.096.62 0 .178 0 .355.096.532.095.177.19.354.287.443.095.177.286.266.477.354.192.089.383.089.574.089.191 0 .478 0 .573-.089.192-.088.383-.177.478-.354.096-.177.192-.266.287-.443 0-.089.096-.354.096-.532zm2.103 3.277h-.765v-1.86h.67l1.528-3.455h.86l1.34 3.455h.764v1.86h-.765v-1.24h-3.632v1.24zm1.625-3.898l-.86 2.038h2.007l-.956-2.57-.191.532zm6.213 0c0-.354-.096-.531-.287-.708-.191-.178-.478-.266-.764-.266-.287 0-.478 0-.67.089-.19.088-.382.177-.573.354l-.478-.443c.191-.177.478-.354.765-.443a3.66 3.66 0 011.051-.177c.287 0 .478 0 .67.088l.573.266c.19.089.287.266.382.443.096.177.096.443.096.709v2.746h-.765v-.532c-.191.266-.382.443-.67.532-.286.088-.573.177-.86.177-.19 0-.382 0-.477-.089a.761.761 0 01-.478-.177c-.192-.088-.287-.265-.383-.354-.095-.177-.19-.354-.19-.62 0-.354.095-.532.286-.709.191-.177.382-.354.669-.443.287-.088.574-.177.956-.177h1.147v-.266zm-.191.71h-.67c-.19 0-.477.088-.668.088-.192.088-.383.177-.478.265a.652.652 0 00-.192.443c0 .089 0 .266.096.355.096.088.096.177.191.177.096.088.191.088.287.088h.287c.19 0 .382 0 .573-.088.191-.089.287-.177.383-.266.095-.088.19-.266.286-.354.096-.177.096-.266.096-.443v-.266h-.191zM85.97 52h-.86v-6.2h.86v.62c.192-.266.383-.443.67-.531.287-.089.573-.178.86-.178.287 0 .67.089.86.178.287.088.478.265.67.443.19.177.382.442.477.708.096.266.192.532.192.886s-.096.62-.192.886a1.914 1.914 0 01-.477.709c-.192.177-.383.354-.67.443-.286.088-.573.177-.86.177-.287 0-.573-.089-.86-.177-.287-.089-.478-.355-.67-.532v2.57zm2.964-4.163c0-.178 0-.355-.096-.532-.095-.177-.19-.354-.286-.443-.096-.177-.287-.266-.478-.354-.192-.089-.383-.089-.67-.089-.19 0-.382 0-.573.089-.191.088-.382.177-.478.354-.096.177-.191.266-.287.443-.095.177-.095.354-.095.62s0 .443.095.62c.096.177.191.355.287.443.096.177.287.266.478.355.191.088.382.088.574.088.19 0 .477 0 .669-.088.19-.09.382-.178.478-.355.095-.177.19-.266.286-.443.096-.354.096-.531.096-.709zm2.868-.444c.19 0 .382 0 .573.089l1.434-1.683h.956l-1.625 1.949c.191.088.478.177.669.354.191.177.382.266.478.443.095.177.287.354.382.62l.287.797H94c-.095-.354-.191-.62-.287-.886a.93.93 0 00-.478-.531c-.19-.177-.382-.266-.573-.266-.191-.088-.478-.088-.765-.088v1.86h-.86v-4.164h.86v1.506h-.095zm7.551-.62l-2.485 3.101h-.86V45.71h.86v3.012l2.485-3.012h.86v4.164h-.86v-3.1zm2.581 4.253h-.765l.669-2.127h.861l-.765 2.127zm4.971-3.633c.191 0 .382 0 .573.089l1.434-1.683h.956l-1.625 1.949c.191.088.478.177.669.354.191.177.382.266.478.443.095.177.287.354.382.62l.287.797h-.956c-.095-.354-.191-.62-.287-.886a.926.926 0 00-.478-.531c-.191-.177-.382-.266-.573-.266-.191-.088-.478-.088-.765-.088v1.86h-.86v-4.164h.86v1.506h-.095zm8.603.444c0 .354-.096.62-.192.885a1.897 1.897 0 01-.478.709 2.113 2.113 0 01-.764.443c-.287.088-.574.177-.956.177-.287 0-.669-.089-.956-.177a2.109 2.109 0 01-.765-.443 1.921 1.921 0 01-.478-.709c-.095-.265-.191-.531-.191-.886 0-.354.096-.62.191-.885.096-.266.287-.532.478-.71a2.11 2.11 0 01.765-.442c.287-.089.573-.177.956-.177.287 0 .669.088.956.177.286.089.573.266.764.443.192.177.383.443.478.709.096.265.192.62.192.886zm-.861 0c0-.178 0-.444-.095-.62-.096-.178-.192-.355-.287-.444-.096-.177-.287-.265-.478-.354-.191-.088-.382-.088-.574-.088-.191 0-.478 0-.573.088-.191.089-.382.177-.478.354-.096.178-.191.266-.287.443-.095.178-.095.355-.095.62 0 .178 0 .355.095.532.096.177.191.354.287.443.096.177.287.266.478.354.191.089.382.089.573.089.192 0 .478 0 .574-.089.191-.088.382-.177.478-.354.095-.177.191-.266.287-.443.095-.089.095-.354.095-.532zm1.434-2.038h3.824v.62h-1.53v3.455h-.86v-3.455h-1.434v-.62zm9.081 2.038c0 .354-.096.62-.191.885a1.921 1.921 0 01-.478.709 2.109 2.109 0 01-.765.443c-.287.088-.573.177-.956.177-.382 0-.669-.089-.956-.177a2.113 2.113 0 01-.764-.443 1.897 1.897 0 01-.478-.709c-.096-.265-.191-.531-.191-.886 0-.354.095-.62.191-.885.095-.266.286-.532.478-.71.191-.176.478-.353.764-.442.287-.089.574-.177.956-.177.383 0 .669.088.956.177.287.089.574.266.765.443.191.177.382.443.478.709.095.265.191.62.191.886zm-.86 0c0-.178 0-.444-.096-.62-.096-.178-.191-.355-.287-.444-.095-.177-.286-.265-.478-.354-.191-.088-.382-.088-.573-.088-.191 0-.478 0-.574.088-.191.089-.382.177-.478.354-.095.178-.191.266-.286.443-.096.178-.096.355-.096.62 0 .178 0 .355.096.532.095.177.191.354.286.443.096.177.287.266.478.354.191.089.383.089.574.089.191 0 .478 0 .573-.089.192-.088.383-.177.478-.354.096-.177.191-.266.287-.443.096-.089.096-.354.096-.532zM127.265 52h-.86v-6.2h.86v.62c.191-.266.382-.443.669-.531.287-.089.573-.178.86-.178.287 0 .669.089.861.178.286.088.478.265.669.443.191.177.382.442.478.708.095.266.191.532.191.886s-.096.62-.191.886a1.922 1.922 0 01-.478.709c-.191.177-.383.354-.669.443-.287.088-.574.177-.861.177-.287 0-.573-.089-.86-.177-.287-.089-.478-.355-.669-.532v2.57zm2.868-4.163c0-.178 0-.355-.096-.532-.096-.177-.191-.354-.287-.443-.095-.177-.287-.266-.478-.354-.191-.089-.382-.089-.669-.089-.191 0-.382 0-.573.089-.192.088-.383.177-.478.354-.096.177-.192.266-.287.443-.096.177-.096.354-.096.62s0 .443.096.62c.095.177.191.355.287.443.095.177.286.266.478.355.191.088.382.088.573.088.191 0 .478 0 .669-.088.191-.09.383-.178.478-.355.096-.177.191-.266.287-.443.096-.354.096-.531.096-.709zm2.963-2.038v1.417h.764c.383 0 .67 0 .861.089.287.089.478.177.573.266a.484.484 0 01.287.443c.096.177.096.354.096.531 0 .443-.192.797-.478.975-.287.265-.765.354-1.434.354h-1.53V45.71h.861v.089zm0 3.544h.764c.287 0 .574-.09.765-.178.191-.088.287-.354.287-.62 0-.177 0-.266-.096-.354-.095-.089-.095-.177-.191-.266-.095-.088-.191-.088-.382-.088h-1.147v1.505zm4.014-3.544v4.164h-.86v-4.164h.86zm5.449 1.949v.354h-3.441c0 .177 0 .355.095.532.096.177.192.266.287.443.096.088.287.177.478.266.191.088.382.088.574.088.286 0 .573-.088.764-.177a1.11 1.11 0 00.478-.443l.574.443c-.287.266-.478.531-.86.709-.287.177-.67.177-1.052.177a2.43 2.43 0 01-.86-.177c-.287-.089-.478-.266-.765-.443a1.923 1.923 0 01-.478-.709c-.095-.266-.191-.532-.191-.886s.096-.62.191-.886c.096-.266.287-.531.478-.708.191-.178.478-.355.669-.443.287-.089.574-.178.86-.178.287 0 .67.089.861.178.287.088.478.265.669.443.191.177.287.442.382.62.287.265.287.531.287.797zm-.765-.266c0-.354-.095-.62-.382-.886-.191-.265-.574-.354-.956-.354-.191 0-.382 0-.478.089a1.304 1.304 0 00-.382.265c-.096.089-.191.266-.287.355-.096.177-.096.265-.096.443h2.581v.088zm4.971-1.683l1.816 2.037 1.721-2.037h.764v4.163h-.86V46.95l-1.529 1.86h-.287l-1.53-1.771v2.923H146V45.8h.765zm9.845 1.949v.354h-3.441c0 .177 0 .355.096.532.095.177.191.266.287.443.095.088.286.177.478.266.191.088.382.088.573.088.287 0 .574-.088.765-.177a1.12 1.12 0 00.478-.443l.573.443c-.286.266-.478.531-.86.709-.287.177-.669.177-1.051.177a2.45 2.45 0 01-.861-.177c-.287-.089-.478-.266-.764-.443a1.899 1.899 0 01-.478-.709c-.096-.266-.192-.532-.192-.886s.096-.62.192-.886c.095-.266.286-.531.478-.708.191-.178.477-.355.669-.443.286-.089.573-.178.86-.178.287 0 .669.089.86.178.287.088.478.265.669.443.192.177.287.442.383.62.191.265.286.531.286.797zm-.86-.266c0-.354-.095-.62-.382-.886-.191-.265-.574-.354-.956-.354-.191 0-.382 0-.478.089a1.304 1.304 0 00-.382.265c-.096.089-.192.266-.287.355-.096.177-.096.265-.096.443h2.581v.088zm2.868 2.392h-.86V45.71h.86v1.595h2.198V45.71h.861v4.164h-.861v-1.86h-2.198v1.86zm6.5-1.594c-.383 0-.765.176-.956.442-.191.266-.382.709-.478 1.24h-.956c.096-.531.191-.885.382-1.24.192-.354.478-.531.861-.62-.287 0-.574-.088-.765-.266a.966.966 0 01-.287-.708c0-.178 0-.355.096-.532a.72.72 0 01.382-.354c.191-.089.383-.177.574-.177.191-.089.478-.089.764-.089h1.817v4.164h-.861v-1.595h-.573v-.266zm-1.243-1.24c0 .088 0 .176.096.265.095.089.095.177.191.177s.191.089.382.089h1.147v-1.152h-1.242c-.096 0-.287 0-.383.089-.095 0-.191.088-.191.177v.354zm10.419.797c0 .354-.095.62-.191.885a1.91 1.91 0 01-.478.709 2.109 2.109 0 01-.765.443c-.286.088-.573.177-.955.177-.287 0-.574-.089-.861-.177-.286-.089-.478-.266-.764-.443-.192-.177-.383-.354-.478-.62-.096-.266-.192-.532-.192-.797h-.764v1.86h-.861V45.71h.861v1.595h.86c.096-.266.096-.532.287-.709.095-.177.287-.354.478-.531.191-.177.478-.266.669-.355.287-.088.573-.088.86-.088.287 0 .669.088.956.177.287.089.574.266.765.443.191.177.382.443.478.709.095.265.095.62.095.886zm-.86 0c0-.178 0-.444-.096-.62-.095-.178-.191-.355-.286-.444-.096-.177-.287-.265-.478-.354-.191-.088-.383-.088-.574-.088-.191 0-.478 0-.573.088-.192.089-.383.177-.478.354-.096.178-.191.266-.287.443-.096.178-.096.355-.096.62 0 .178 0 .355.096.532.096.177.191.354.287.443.095.177.286.266.478.354.191.089.382.089.573.089.191 0 .478 0 .574-.089.191-.088.382-.177.478-.354.095-.177.191-.266.286-.443.096-.089.096-.354.096-.532zm1.434-2.038h3.823v.62h-1.529v3.455h-.86v-3.455h-1.434v-.62zm9.559 2.303c-.287 0-.478.089-.765.089l-.574.266c-.191.177-.286.354-.478.531-.095.266-.191.532-.286.886h-.956c.191-.62.382-1.063.669-1.417.287-.355.669-.62 1.051-.798l-1.529-1.949h.956l1.338 1.684c.191 0 .382-.089.574-.089V45.71h.86v1.595c.191 0 .382 0 .573.089l1.339-1.684h.956l-1.53 1.95c.478.177.765.442 1.052.797.286.354.478.797.669 1.417h-.956c-.096-.354-.191-.62-.287-.886a.932.932 0 00-.478-.531c-.191-.178-.382-.266-.573-.266-.192-.089-.478-.089-.765-.089v1.86h-.86v-1.86zm8.316-1.329l-2.485 3.101h-.861V45.71h.861v3.012l2.485-3.012h.86v4.164h-.86v-3.1zm2.485.089l-.573-.354s.095-.089.095-.177l.287-.266c.096-.089.287-.177.478-.266.191-.088.478-.089.765-.089.286 0 .573 0 .764.089.191.089.383.177.478.266.096.088.191.266.287.354.096.177.096.266.096.443a.966.966 0 01-.287.709c-.191.177-.478.266-.765.266.191 0 .287 0 .478.088.096 0 .287.089.382.177l.287.266c.096.089.096.266.096.443s0 .354-.096.532a.719.719 0 01-.382.354l-.574.266c-.191.088-.478.088-.764.088-.287 0-.574 0-.765-.088-.191-.089-.382-.178-.478-.266l-.287-.266c-.095-.088-.095-.088-.095-.177l.573-.443s0 .089.096.089l.191.177c.095.088.191.088.382.177s.287.089.574.089.573-.09.764-.178c.192-.088.287-.265.287-.531a.482.482 0 00-.287-.443 1.565 1.565 0 00-.764-.177h-.574v-.532h.574c.287 0 .478-.088.669-.177a.484.484 0 00.287-.443.65.65 0 00-.192-.443c-.191-.177-.382-.177-.669-.177-.191 0-.382 0-.478.089a1.38 1.38 0 01-.286.177c-.478.088-.478.265-.574.354zm4.971 3.012h-.861V45.71h.861v1.595h2.198V45.71h.861v4.164h-.861v-1.86h-2.198v1.86zm5.353-4.075v1.417h1.051c.287 0 .574 0 .86.089l.574.266c.096.088.287.266.287.443.095.177.095.354.095.531 0 .177 0 .355-.095.532-.096.177-.191.354-.287.443-.191.088-.287.265-.574.265-.191.089-.478.089-.764.089h-1.912V45.71h.765v.089zm0 3.544h.86c.287 0 .573-.09.765-.178.191-.088.286-.354.286-.62 0-.177 0-.266-.095-.354-.096-.089-.096-.177-.191-.266-.096-.088-.192-.088-.383-.088h-1.242v1.505z" fill="#787878"/><path d="M68.64 12.668c0 4.96-2.294 9.39-6.787 13.11-1.147.886-2.103 1.33-2.868 1.33-.86 0-1.911-.532-3.059-1.684C52.008 21.881 50 17.806 50 13.288c0-1.506.382-3.1 1.147-4.695.67-1.683 1.816-3.278 3.25-4.961C55.45 2.48 56.404 1.595 57.456.974 58.412.354 59.272 0 59.94 0c.67 0 1.625.532 2.772 1.506 4.015 3.278 5.927 6.91 5.927 11.162zM64.816 16.3c0-4.961-1.625-8.682-4.78-11.162-.955-.797-1.72-1.152-2.198-1.152s-1.051.178-1.53.62a7.747 7.747 0 00-1.433 1.772 8.666 8.666 0 00-.765 1.86c-.19.71-.286 1.33-.286 1.95 0 4.872 1.72 8.77 5.257 11.604 1.051.886 1.816 1.329 2.39 1.329 1.147 0 2.007-.886 2.676-2.658.478-1.24.67-2.657.67-4.163zm25.044 6.91c0 2.48-2.39 3.631-7.073 3.631h-8.603c-1.72 0-2.581-.443-2.581-1.417V1.683c0-.886.574-1.329 1.72-1.329h12.81c.573 0 1.05.089 1.433.266.382.177.765.354.956.532.287.354.478 1.151.478 2.126 0 3.809-.478 5.67-1.434 5.67-.573 0-1.242-.532-1.816-1.684-1.051-2.038-1.625-3.1-1.72-3.366-.383-.62-.86-1.063-1.339-1.506-.478-.443-.86-.709-1.242-.798a4.551 4.551 0 00-1.243-.177c-.574-.088-1.147-.088-1.816-.088-.67 0-1.243.177-1.625.531-.287.355-.383.975-.383 1.772v7.441h-.19c1.242.532 2.58 1.152 4.014 2.038 1.434.885 2.868 1.86 4.206 3.012a25.324 25.324 0 014.014 3.897c.956 1.24 1.434 2.215 1.434 3.19zm-5.448-.09c0-.885-.287-1.86-.765-2.922-.478-.975-1.243-2.127-2.198-3.367-.86-1.151-1.817-2.037-2.677-2.746-.86-.709-1.625-1.152-2.39-1.417v11.427c0 .266 0 .532.096.798.096.177.191.354.191.531.096.089.287.089.574.177.286.089.478.089.764.089h3.824c.669 0 1.243-.266 1.816-.709.478-.443.765-1.063.765-1.86zm22.272-8.946c0 .62-.478 1.24-1.338 1.771-.383.178-.67.355-1.052.443-.382.089-.765.178-1.243.178-.191 0-.478-.178-.764-.443a6.589 6.589 0 01-.956-1.152 5.623 5.623 0 00-.86-1.063c-.192-.354-.383-.443-.287-.443-.287 0-1.147.354-2.39.975-1.243.708-1.816 1.24-1.816 1.594 0 .62.096 1.24.382 2.038.287.708.67 1.506 1.147 2.303 1.243 1.86 2.294 2.834 3.25 2.834.574 0 1.339-.265 2.199-.885.191-.089.765-.62 1.625-1.33l.478-.354 1.051.444c-.095.442-1.242 1.683-3.345 3.631-2.103 1.86-3.442 2.747-4.11 2.747-2.2 0-4.015-1.86-5.64-5.581-1.339-3.1-2.008-5.758-2.008-7.973 0-2.392 1.052-5.227 3.25-8.504C96.456 1.772 99.037 0 101.618 0c.478 0 .955.177 1.433.62.478.354.956.886 1.434 1.595.956 1.328 1.434 2.48 1.434 3.277 0 .709-.287 1.24-.86 1.772-.096.089-.383.266-.574.532-.287.177-.669.442-1.147.708h-1.529l-.287-1.594a26.618 26.618 0 00-.574-1.506c-.669-1.24-1.433-1.95-2.198-1.95-.478 0-.956.267-1.434.71-.478.442-.86 1.151-1.243 2.126-.286.708-.477 1.417-.669 2.214-.19.798-.286 1.506-.286 2.038 0 1.417.095 2.746.382 4.075 2.39-1.24 4.301-2.215 5.64-2.747 1.338-.531 2.198-.885 2.676-.885.478 0 .86.088 1.243.354.382.266.669.531.956.886l.573 1.063c0 .266.096.62.096.886zm19.309-7.353a7.73 7.73 0 01-1.052 3.898c-.669 1.152-1.625 2.215-2.868 3.19a14.1 14.1 0 01-3.727 1.77c-1.339.444-2.868.62-4.493.71v10.098c0 .532-.86.798-2.677.798-1.433 0-2.103-.266-2.103-.798V1.417c0-.797 1.052-1.151 3.059-1.151 3.728 0 6.691.266 8.794.886 3.346 1.063 5.067 3.012 5.067 5.67zm-4.684.355c0-1.595-.478-2.924-1.434-3.987-1.052-1.24-2.199-1.86-3.632-1.86-1.53 0-2.295.354-2.295 1.152v11.338c0 .886.192 1.33.478 1.33 2.199 0 3.92-.798 5.162-2.392 1.147-1.418 1.721-3.278 1.721-5.581zm21.603 6.998c0 .62-.478 1.24-1.338 1.771-.383.178-.67.355-1.052.443-.382.089-.765.178-1.243.178-.191 0-.478-.178-.764-.443a6.589 6.589 0 01-.956-1.152 5.623 5.623 0 00-.86-1.063c-.192-.354-.383-.443-.287-.443-.287 0-1.147.354-2.39.975-1.243.708-1.816 1.24-1.816 1.594 0 .62.095 1.24.382 2.038.287.708.669 1.506 1.147 2.303 1.243 1.86 2.294 2.834 3.25 2.834.574 0 1.339-.265 2.199-.885.191-.089.765-.62 1.625-1.33l.478-.354 1.051.444c-.095.442-1.242 1.683-3.345 3.631-2.103 1.86-3.442 2.747-4.111 2.747-2.198 0-4.014-1.86-5.639-5.581-1.339-3.1-2.008-5.758-2.008-7.973 0-2.392 1.052-5.227 3.25-8.504C132.779 1.772 135.265 0 137.941 0c.478 0 .956.177 1.434.62.478.354.956.886 1.434 1.595.956 1.328 1.434 2.48 1.434 3.277 0 .709-.287 1.24-.861 1.772-.095.089-.382.266-.573.532-.287.177-.669.442-1.147.708h-1.53l-.286-1.594c-.192-.532-.383-1.063-.574-1.506-.669-1.24-1.434-1.95-2.198-1.95-.478 0-.956.267-1.434.71-.478.442-.861 1.151-1.243 2.126-.287.708-.478 1.417-.669 2.214-.191.798-.287 1.506-.287 2.038 0 1.417.096 2.746.383 4.075 2.389-1.24 4.301-2.215 5.639-2.747 1.338-.531 2.199-.885 2.677-.885.478 0 .86.088 1.242.354.383.266.669.531.956.886l.574 1.063v.886zm17.11-4.695c-.287 0-.573-.177-.86-.532-.287-.354-.574-.886-.765-1.417-.287-.886-.573-1.683-.765-2.303a4.543 4.543 0 00-.669-1.33c-.86-1.328-1.912-2.037-3.154-2.037h-.86c-.861 0-1.53.089-2.008.355-.478.354-.765.886-.765 1.683V26.31c0 .532-.86.886-2.485.886-1.529 0-2.39-.354-2.39-.974V1.152c0-.532.478-.886 1.434-.886h12.331c1.243 0 2.103.531 2.39 1.594.095.443.191 1.33.191 2.658.096 3.278-.478 4.96-1.625 4.96zM111.5 37.295c22.367-2.303 59.647-3.72 59.647-3.72h-59.743c.287.62.383 1.328.383 2.037a4.82 4.82 0 01-.287 1.683zm-12.044-3.721H40s36.993 1.418 59.264 3.72a5.192 5.192 0 01-.286-1.682c.095-.709.19-1.418.478-2.038zm1.72 2.038c0 .443.096.797.191 1.151.574 1.595 2.103 2.746 4.015 2.746 1.912 0 3.537-1.151 4.015-2.746.095-.354.191-.797.191-1.151 0-.443-.096-.886-.287-1.33-.573-1.505-2.198-2.568-4.014-2.568-1.817 0-3.442 1.063-4.015 2.569 0 .354-.096.797-.096 1.329z" fill="#F4A876"/></g><defs><clipPath id="clip0"><path fill="#fff" d="M0 0h208v52H0z"/></clipPath></defs></svg>