<svg width="208" height="52" viewBox="0 0 208 52" fill="none" xmlns="http://www.w3.org/2000/svg"><path d="M68.64 12.668c0 4.96-2.294 9.39-6.787 13.11-1.147.886-2.103 1.33-2.868 1.33-.86 0-1.911-.532-3.059-1.684C52.008 21.881 50 17.806 50 13.288c0-1.506.382-3.1 1.147-4.695.67-1.683 1.816-3.278 3.25-4.961C55.45 2.48 56.404 1.595 57.456.974 58.412.354 59.272 0 59.94 0c.67 0 1.625.532 2.772 1.506 4.015 3.278 5.927 6.91 5.927 11.162zM64.816 16.3c0-4.961-1.625-8.682-4.78-11.162-.955-.797-1.72-1.152-2.198-1.152s-1.051.178-1.53.62a7.747 7.747 0 00-1.433 1.772 8.666 8.666 0 00-.765 1.86c-.19.71-.286 1.33-.286 1.95 0 4.872 1.72 8.77 5.257 11.604 1.051.886 1.816 1.329 2.39 1.329 1.147 0 2.007-.886 2.676-2.658.478-1.24.67-2.657.67-4.163zm25.044 6.91c0 2.48-2.39 3.631-7.073 3.631h-8.603c-1.72 0-2.581-.443-2.581-1.417V1.683c0-.886.574-1.329 1.72-1.329h12.81c.573 0 1.05.089 1.433.266.382.177.765.354.956.532.287.354.478 1.151.478 2.126 0 3.809-.478 5.67-1.434 5.67-.573 0-1.242-.532-1.816-1.684-1.051-2.038-1.625-3.1-1.72-3.366-.383-.62-.86-1.063-1.339-1.506-.478-.443-.86-.709-1.242-.798a4.551 4.551 0 00-1.243-.177c-.574-.088-1.147-.088-1.816-.088-.67 0-1.243.177-1.625.531-.287.355-.383.975-.383 1.772v7.441h-.19c1.242.532 2.58 1.152 4.014 2.038 1.434.885 2.868 1.86 4.206 3.012a25.324 25.324 0 014.014 3.897c.956 1.24 1.434 2.215 1.434 3.19zm-5.448-.09c0-.885-.287-1.86-.765-2.922-.478-.975-1.243-2.127-2.198-3.367-.86-1.151-1.817-2.037-2.677-2.746-.86-.709-1.625-1.152-2.39-1.417v11.427c0 .266 0 .532.096.798.096.177.191.354.191.531.096.089.287.089.574.177.286.089.478.089.764.089h3.824c.669 0 1.243-.266 1.816-.709.478-.443.765-1.063.765-1.86zm22.272-8.946c0 .62-.478 1.24-1.338 1.771-.383.178-.67.355-1.052.443-.382.089-.765.178-1.243.178-.191 0-.478-.178-.764-.443a6.589 6.589 0 01-.956-1.152 5.623 5.623 0 00-.86-1.063c-.192-.354-.383-.443-.287-.443-.287 0-1.147.354-2.39.975-1.243.708-1.816 1.24-1.816 1.594 0 .62.096 1.24.382 2.038.287.708.67 1.506 1.147 2.303 1.243 1.86 2.294 2.834 3.25 2.834.574 0 1.339-.265 2.199-.885.191-.089.765-.62 1.625-1.33l.478-.354 1.051.444c-.095.442-1.242 1.683-3.345 3.631-2.103 1.86-3.442 2.747-4.11 2.747-2.2 0-4.015-1.86-5.64-5.581-1.339-3.1-2.008-5.758-2.008-7.973 0-2.392 1.052-5.227 3.25-8.504C96.456 1.772 99.037 0 101.618 0c.478 0 .955.177 1.433.62.478.354.956.886 1.434 1.595.956 1.328 1.434 2.48 1.434 3.277 0 .709-.287 1.24-.86 1.772-.096.089-.383.266-.574.532-.287.177-.669.442-1.147.708h-1.529l-.287-1.594a26.618 26.618 0 00-.574-1.506c-.669-1.24-1.433-1.95-2.198-1.95-.478 0-.956.267-1.434.71-.478.442-.86 1.151-1.243 2.126-.286.708-.477 1.417-.669 2.214-.19.798-.286 1.506-.286 2.038 0 1.417.095 2.746.382 4.075 2.39-1.24 4.301-2.215 5.64-2.747 1.338-.531 2.198-.885 2.676-.885.478 0 .86.088 1.243.354.382.266.669.531.956.886l.573 1.063c0 .266.096.62.096.886zm19.309-7.353a7.73 7.73 0 01-1.052 3.898c-.669 1.152-1.625 2.215-2.868 3.19a14.1 14.1 0 01-3.727 1.77c-1.339.444-2.868.62-4.493.71v10.098c0 .532-.86.798-2.677.798-1.433 0-2.103-.266-2.103-.798V1.417c0-.797 1.052-1.151 3.059-1.151 3.728 0 6.691.266 8.794.886 3.346 1.063 5.067 3.012 5.067 5.67zm-4.684.355c0-1.595-.478-2.924-1.434-3.987-1.052-1.24-2.199-1.86-3.632-1.86-1.53 0-2.295.354-2.295 1.152v11.338c0 .886.192 1.33.478 1.33 2.199 0 3.92-.798 5.162-2.392 1.147-1.418 1.721-3.278 1.721-5.581zm21.603 6.998c0 .62-.478 1.24-1.338 1.771-.383.178-.67.355-1.052.443-.382.089-.765.178-1.243.178-.191 0-.478-.178-.764-.443a6.589 6.589 0 01-.956-1.152 5.623 5.623 0 00-.86-1.063c-.192-.354-.383-.443-.287-.443-.287 0-1.147.354-2.39.975-1.243.708-1.816 1.24-1.816 1.594 0 .62.095 1.24.382 2.038.287.708.669 1.506 1.147 2.303 1.243 1.86 2.294 2.834 3.25 2.834.574 0 1.339-.265 2.199-.885.191-.089.765-.62 1.625-1.33l.478-.354 1.051.444c-.095.442-1.242 1.683-3.345 3.631-2.103 1.86-3.442 2.747-4.111 2.747-2.198 0-4.014-1.86-5.639-5.581-1.339-3.1-2.008-5.758-2.008-7.973 0-2.392 1.052-5.227 3.25-8.504C132.779 1.772 135.265 0 137.941 0c.478 0 .956.177 1.434.62.478.354.956.886 1.434 1.595.956 1.328 1.434 2.48 1.434 3.277 0 .709-.287 1.24-.861 1.772-.095.089-.382.266-.573.532-.287.177-.669.442-1.147.708h-1.53l-.286-1.594c-.192-.532-.383-1.063-.574-1.506-.669-1.24-1.434-1.95-2.198-1.95-.478 0-.956.267-1.434.71-.478.442-.861 1.151-1.243 2.126-.287.708-.478 1.417-.669 2.214-.191.798-.287 1.506-.287 2.038 0 1.417.096 2.746.383 4.075 2.389-1.24 4.301-2.215 5.639-2.747 1.338-.531 2.199-.885 2.677-.885.478 0 .86.088 1.242.354.383.266.669.531.956.886l.574 1.063v.886zm17.11-4.695c-.287 0-.573-.177-.86-.532-.287-.354-.574-.886-.765-1.417-.287-.886-.573-1.683-.765-2.303a4.543 4.543 0 00-.669-1.33c-.86-1.328-1.912-2.037-3.154-2.037h-.86c-.861 0-1.53.089-2.008.355-.478.354-.765.886-.765 1.683V26.31c0 .532-.86.886-2.485.886-1.529 0-2.39-.354-2.39-.974V1.152c0-.532.478-.886 1.434-.886h12.331c1.243 0 2.103.531 2.39 1.594.095.443.191 1.33.191 2.658.096 3.278-.478 4.96-1.625 4.96zM111.5 37.295c22.367-2.303 59.647-3.72 59.647-3.72h-59.743c.287.62.383 1.328.383 2.037a4.82 4.82 0 01-.287 1.683zm-12.044-3.721H40s36.993 1.418 59.264 3.72a5.192 5.192 0 01-.286-1.682c.095-.709.19-1.418.478-2.038zm1.72 2.038c0 .443.096.797.191 1.151.574 1.595 2.103 2.746 4.015 2.746 1.912 0 3.537-1.151 4.015-2.746.095-.354.191-.797.191-1.151 0-.443-.096-.886-.287-1.33-.573-1.505-2.198-2.568-4.014-2.568-1.817 0-3.442 1.063-4.015 2.569 0 .354-.096.797-.096 1.329z" fill="#fff"/></svg>