<svg width="206" height="60" viewBox="0 0 206 60" fill="none" xmlns="http://www.w3.org/2000/svg"><path d="M1.051 51l1.912 3.81L4.78 51h.956l-2.39 4.784c-.095.177-.19.443-.382.62-.19.177-.19.354-.382.443-.191.088-.287.265-.478.265-.191.089-.382.089-.67.089-.286 0-.477 0-.668-.089-.191-.088-.287-.088-.383-.177l.478-.62c.096.089.191.089.287.177.096.089.287.089.382.089a.761.761 0 00.478-.177c.192-.177.287-.355.383-.62L0 51h1.051zm6.309 3.632c.191 0 .383 0 .574.089l1.434-1.684h.955L8.7 54.987c.19.088.477.176.669.354.19.177.382.265.478.442.095.178.286.355.382.62l.287.798H9.56c-.096-.355-.191-.62-.287-.886a.93.93 0 00-.478-.532c-.191-.177-.382-.265-.573-.265-.192-.089-.478-.089-.765-.089v1.86H6.5v-4.163h.86v1.506zm5.066 4.607h-.764v-6.201h.86v.62c.191-.266.382-.443.67-.532.286-.088.573-.177.86-.177.286 0 .669.089.86.177.286.089.478.266.669.443.191.177.382.443.478.709.095.266.191.531.191.886 0 .354-.096.62-.191.886a1.917 1.917 0 01-.478.708c-.191.177-.383.354-.67.443-.286.089-.573.177-.86.177-.286 0-.573-.088-.86-.177-.287-.089-.478-.354-.669-.531v2.569h-.096zm2.964-4.164c0-.177 0-.354-.096-.532-.096-.177-.191-.354-.287-.442-.095-.178-.286-.266-.478-.355-.19-.088-.382-.088-.669-.088-.19 0-.382 0-.573.088-.191.089-.383.177-.478.355-.096.177-.191.265-.287.443-.096.177-.096.354-.096.62 0 .265 0 .443.096.62s.191.354.287.443c.095.177.287.265.478.354.19.089.382.089.573.089.191 0 .478 0 .67-.089.19-.089.382-.177.477-.354.096-.177.191-.266.287-.443 0-.355.096-.532.096-.709zm4.78-.62c0-.354-.096-.532-.288-.709-.19-.177-.478-.266-.764-.266-.287 0-.478 0-.67.09-.19.088-.382.176-.573.353l-.478-.354c.191-.177.478-.354.765-.443a3.7 3.7 0 011.051-.177c.287 0 .478 0 .67.089l.573.265c.191.089.287.266.382.443.096.177.096.443.096.709V57.2h-.765v-.531c-.191.265-.382.442-.669.531-.287.089-.573.177-.86.177-.191 0-.383 0-.478-.088a.761.761 0 01-.478-.178c-.191-.088-.287-.265-.383-.354-.095-.177-.19-.354-.19-.62 0-.354.095-.531.286-.709.191-.177.383-.354.67-.443.286-.088.573-.177.955-.177h1.147v-.354zm-.192.709h-.67c-.19 0-.477.088-.668.088-.191.089-.383.177-.478.266a.652.652 0 00-.191.443c0 .089 0 .266.095.354.096.089.096.177.191.177.096.089.192.089.287.089h.287c.191 0 .382 0 .573-.089.192-.088.287-.177.383-.265.095-.089.191-.266.287-.355.095-.177.095-.265.095-.443v-.265h-.191zm2.39 1.948V52.95h.86v3.455h1.72V52.95h.86v3.455h1.721V52.95h.86v4.163h-6.021zm11.566-2.126v.355h-3.441c0 .177 0 .354.095.531.096.178.191.266.287.443.096.089.287.177.478.266.191.089.382.089.573.089.287 0 .574-.089.765-.178.191-.088.383-.265.478-.442l.574.442c-.287.266-.478.532-.86.71-.287.176-.67.176-1.052.176-.287 0-.67-.088-.86-.177-.287-.089-.478-.266-.765-.443a1.916 1.916 0 01-.478-.709c-.096-.265-.191-.531-.191-.885 0-.355.095-.62.19-.886.096-.266.288-.532.479-.709.191-.177.478-.354.669-.443.287-.088.573-.177.86-.177.287 0 .67.089.86.177.287.089.479.266.67.443.19.177.286.443.382.62.191.266.287.532.287.797zm-.86-.265c0-.355-.096-.62-.383-.886-.191-.266-.573-.355-.956-.355-.19 0-.382 0-.478.09a1.315 1.315 0 00-.382.265c-.096.088-.191.266-.287.354-.095.177-.095.266-.095.443h2.58v.089zm2.867 2.391h-.86V52.95h.86v1.595h2.199V52.95H39v4.163h-.86v-1.86h-2.2v1.86zm7.839-3.1l-2.486 3.1h-.86V52.95h.86v3.012l2.485-3.012h.86v4.163h-.86v-3.1zm4.3 1.506c-.381 0-.764.177-.955.443-.191.266-.382.709-.478 1.24h-.956c.096-.532.191-.886.383-1.24.19-.355.477-.532.86-.62-.287 0-.574-.089-.765-.266a.965.965 0 01-.287-.709c0-.177 0-.354.096-.531a.72.72 0 01.382-.355c.191-.088.383-.177.574-.177.191-.088.478-.088.765-.088h1.816v4.163h-.86v-1.594h-.574v-.266zm-1.242-1.24c0 .088 0 .177.096.265.095.089.095.178.191.178s.191.088.382.088h1.147v-1.151h-1.242c-.096 0-.287 0-.383.088-.095 0-.19.089-.19.177v.355zm9.655-.266l-2.486 3.1h-.86V52.95h.86v3.012l2.486-3.012h.86v4.163h-.86v-3.1zm5.448 3.1h-.86V52.95h3.823v4.163h-.86v-3.454h-2.103v3.454zm8.889-2.037c0 .354-.095.62-.19.886a1.914 1.914 0 01-.478.709 2.11 2.11 0 01-.765.442c-.287.09-.573.178-.956.178-.382 0-.669-.089-.956-.178a2.112 2.112 0 01-.764-.443 1.915 1.915 0 01-.478-.708c-.096-.266-.191-.532-.191-.886s.095-.62.19-.886c.096-.266.287-.531.479-.709.19-.177.478-.354.764-.442.287-.09.574-.178.956-.178.383 0 .67.089.956.178.287.088.574.265.765.443.191.177.382.442.478.708.095.266.19.62.19.886zm-.86 0c0-.177 0-.443-.095-.62-.096-.177-.191-.354-.287-.443-.095-.177-.286-.266-.478-.354-.19-.089-.382-.089-.573-.089-.191 0-.478 0-.574.089-.19.088-.382.177-.478.354-.095.177-.19.266-.286.443-.096.177-.096.354-.096.62 0 .177 0 .354.096.531.095.178.19.355.286.443.096.178.287.266.478.355.192.088.383.088.574.088.191 0 .478 0 .573-.088.192-.089.383-.177.478-.355.096-.177.191-.265.287-.443 0-.088.096-.354.096-.531zm2.103 3.277h-.764v-1.86h.669l1.53-3.455h.86l1.338 3.455h.765v1.86h-.765v-1.24h-3.633v1.24zm1.626-3.897l-.86 2.037h2.007l-.956-2.569-.192.532zm6.213 0c0-.354-.096-.532-.287-.709-.191-.177-.478-.266-.765-.266-.287 0-.478 0-.669.089-.191.089-.382.177-.573.354l-.478-.443a2.11 2.11 0 01.764-.442c.287-.09.67-.178 1.052-.178.287 0 .478 0 .669.089l.573.266c.192.088.287.265.383.443.095.177.095.443.095.708v2.746h-.764v-.531c-.192.266-.383.443-.67.531-.286.09-.573.178-.86.178-.19 0-.382 0-.478-.089a.761.761 0 01-.478-.177c-.19-.089-.286-.266-.382-.355-.096-.177-.191-.354-.191-.62 0-.354.096-.531.287-.708.19-.177.382-.355.669-.443.287-.089.573-.177.956-.177h1.147v-.266zm-.192.709h-.669c-.19 0-.478.088-.669.088-.19.089-.382.177-.478.266a.652.652 0 00-.19.443c0 .088 0 .266.095.354.095.089.095.177.191.177.096.089.191.089.287.089h.286c.192 0 .383 0 .574-.089.191-.088.287-.177.382-.265.096-.089.192-.266.287-.355.096-.177.096-.266.096-.443v-.265h-.192zm3.25 4.075h-.86v-6.201h.86v.62c.192-.266.383-.443.67-.532.286-.088.573-.177.86-.177.287 0 .669.089.86.177.287.089.478.266.67.443.19.177.382.443.477.709.096.266.191.531.191.886 0 .354-.095.62-.19.886a1.916 1.916 0 01-.479.708c-.19.177-.382.354-.669.443-.287.089-.573.177-.86.177-.287 0-.574-.088-.86-.177-.287-.089-.478-.354-.67-.531v2.569zm2.964-4.164c0-.177 0-.354-.096-.532-.095-.177-.191-.354-.287-.442-.095-.178-.286-.266-.478-.355-.19-.088-.382-.088-.669-.088-.19 0-.382 0-.573.088-.191.089-.383.177-.478.355-.096.177-.191.265-.287.443-.096.177-.096.354-.096.62 0 .265 0 .443.096.62s.191.354.287.443c.096.177.287.265.478.354.191.089.382.089.573.089.192 0 .478 0 .67-.089.19-.089.382-.177.477-.354.096-.177.192-.266.287-.443.096-.355.096-.532.096-.709zm2.867-.443c.192 0 .383 0 .574.089l1.434-1.684h.956l-1.625 1.95c.19.088.478.176.669.354.191.177.382.265.478.442.095.178.286.355.382.62l.287.798H91c-.096-.355-.191-.62-.287-.886a.93.93 0 00-.478-.532c-.19-.177-.382-.265-.573-.265-.191-.089-.478-.089-.765-.089v1.86h-.86v-4.163h.86v1.506h-.096zm7.552-.62l-2.485 3.1h-.86V52.95h.86v3.012l2.485-3.012h.86v4.163h-.86v-3.1zm2.581 4.252h-.765l.67-2.126h.86l-.765 2.126zm4.97-3.632c.192 0 .383 0 .574.089l1.434-1.684h.956l-1.625 1.95c.191.088.478.176.669.354.191.177.382.265.478.442.095.178.286.355.382.62l.287.798h-.956c-.096-.355-.191-.62-.287-.886a.929.929 0 00-.478-.532c-.191-.177-.382-.265-.573-.265-.192-.089-.478-.089-.765-.089v1.86h-.86v-4.163h.86v1.506h-.096zm8.603.443c0 .354-.095.62-.191.886a1.91 1.91 0 01-.478.709 2.109 2.109 0 01-.765.442c-.286.09-.573.178-.955.178-.287 0-.67-.089-.956-.178a2.109 2.109 0 01-.765-.443 1.922 1.922 0 01-.478-.708c-.096-.266-.191-.532-.191-.886s.095-.62.191-.886.287-.531.478-.709c.191-.177.478-.354.765-.442.286-.09.573-.178.956-.178.286 0 .669.089.955.178.287.088.574.265.765.443.191.177.383.442.478.708.096.266.191.62.191.886zm-.86 0c0-.177 0-.443-.096-.62-.095-.177-.191-.354-.286-.443-.096-.177-.287-.266-.478-.354-.191-.089-.383-.089-.574-.089-.191 0-.478 0-.573.089-.192.088-.383.177-.478.354-.096.177-.191.266-.287.443-.096.177-.096.354-.096.62 0 .177 0 .354.096.531.096.178.191.355.287.443.095.178.286.266.478.355.191.088.382.088.573.088.191 0 .478 0 .574-.088.191-.089.382-.177.478-.355.095-.177.191-.265.286-.443.096-.088.096-.354.096-.531zm1.434-2.038h3.823v.62h-1.529v3.455h-.86v-3.455h-1.434v-.62zm9.081 2.038c0 .354-.096.62-.191.886a1.922 1.922 0 01-.478.709 2.117 2.117 0 01-.765.442c-.287.09-.574.178-.956.178s-.669-.089-.956-.178a2.117 2.117 0 01-.765-.443 1.907 1.907 0 01-.477-.708c-.096-.266-.192-.532-.192-.886s.096-.62.192-.886c.095-.266.286-.531.477-.709a2.11 2.11 0 01.765-.442c.287-.09.574-.178.956-.178s.669.089.956.178c.287.088.573.265.765.443.191.177.382.442.478.708.095.266.191.62.191.886zm-.861 0c0-.177 0-.443-.095-.62-.096-.177-.191-.354-.287-.443-.095-.177-.287-.266-.478-.354-.191-.089-.382-.089-.573-.089-.192 0-.478 0-.574.089-.191.088-.382.177-.478.354-.095.177-.191.266-.287.443-.095.177-.095.354-.095.62 0 .177 0 .354.095.531.096.178.192.355.287.443.096.178.287.266.478.355.191.088.382.088.574.088.191 0 .478 0 .573-.088.191-.089.383-.177.478-.355.096-.177.191-.265.287-.443.095-.088.095-.354.095-.531zm2.964 4.164h-.861v-6.201h.861v.62c.191-.266.382-.443.669-.532.287-.088.573-.177.86-.177.287 0 .669.089.86.177.287.089.478.266.67.443.191.177.382.443.478.709.095.266.191.531.191.886 0 .354-.096.62-.191.886a1.923 1.923 0 01-.478.708c-.192.177-.383.354-.67.443-.286.089-.573.177-.86.177-.287 0-.573-.088-.86-.177-.287-.089-.478-.354-.669-.531v2.569zm2.867-4.164c0-.177 0-.354-.095-.532-.096-.177-.191-.354-.287-.442-.096-.178-.287-.266-.478-.355-.191-.088-.382-.088-.669-.088-.191 0-.382 0-.574.088-.191.089-.382.177-.478.355-.095.177-.191.265-.286.443-.096.177-.096.354-.096.62 0 .265 0 .443.096.62.095.177.191.354.286.443.096.177.287.265.478.354.192.089.383.089.574.089.191 0 .478 0 .669-.089.191-.089.382-.177.478-.354.096-.177.191-.266.287-.443.095-.355.095-.532.095-.709zm2.964-2.037v1.417h.764c.383 0 .669 0 .861.089.286.088.478.177.573.265a.484.484 0 01.287.443c.096.177.096.355.096.532 0 .443-.192.797-.478.974-.287.266-.765.354-1.434.354h-1.53V52.95h.861v.089zm0 3.543h.764c.287 0 .574-.089.765-.177.191-.089.287-.355.287-.62 0-.177 0-.266-.096-.355-.095-.088-.095-.177-.191-.265-.096-.089-.191-.089-.382-.089h-1.147v1.506zm4.014-3.543V57.2h-.86v-4.163h.86zm5.449 1.948v.355h-3.441c0 .177 0 .354.095.531.096.178.191.266.287.443.096.089.287.177.478.266.191.089.382.089.573.089.287 0 .574-.089.765-.178.191-.088.383-.265.478-.442l.574.442c-.287.266-.478.532-.861.71-.286.176-.669.176-1.051.176a2.43 2.43 0 01-.86-.177c-.287-.089-.478-.266-.765-.443a1.923 1.923 0 01-.478-.709c-.096-.265-.191-.531-.191-.885 0-.355.095-.62.191-.886s.287-.532.478-.709c.191-.177.478-.354.669-.443.287-.088.574-.177.86-.177.287 0 .669.089.861.177.286.089.478.266.669.443.191.177.286.443.382.62.287.266.287.532.287.797zm-.765-.265c0-.355-.095-.62-.382-.886-.191-.266-.574-.355-.956-.355-.191 0-.382 0-.478.09a1.306 1.306 0 00-.382.265c-.096.088-.192.266-.287.354-.096.177-.096.266-.096.443h2.581v.089zm4.971-1.684l1.816 2.038 1.72-2.038h.765v4.164h-.86v-3.012l-1.53 1.86h-.286l-1.53-1.771V57.2H143v-4.164h.765zm9.845 1.949v.355h-3.441c0 .177 0 .354.096.531.095.178.191.266.287.443.095.089.286.177.477.266.192.089.383.089.574.089.287 0 .573-.089.765-.178.191-.088.382-.265.478-.442l.573.442c-.287.266-.478.532-.86.71-.287.176-.669.176-1.052.176-.286 0-.669-.088-.86-.177-.287-.089-.478-.266-.765-.443a1.923 1.923 0 01-.478-.709c-.095-.265-.191-.531-.191-.885 0-.355.096-.62.191-.886a1.92 1.92 0 01.478-.709c.192-.177.478-.354.67-.443.286-.088.573-.177.86-.177.287 0 .669.089.86.177.287.089.478.266.669.443.191.177.287.443.383.62.191.266.286.532.286.797zm-.86-.265c0-.355-.096-.62-.382-.886-.192-.266-.574-.355-.956-.355-.191 0-.383 0-.478.09a1.306 1.306 0 00-.382.265c-.096.088-.192.266-.287.354-.096.177-.096.266-.096.443h2.581v.089zm2.868 2.391h-.861V52.95h.861v1.595h2.198V52.95h.86v4.163h-.86v-1.86h-2.198v1.86zm6.5-1.594c-.383 0-.765.177-.956.443-.191.266-.383.709-.478 1.24h-.956c.095-.532.191-.886.382-1.24.191-.355.478-.532.861-.62-.287 0-.574-.089-.765-.266a.966.966 0 01-.287-.709c0-.177 0-.354.096-.531a.719.719 0 01.382-.355c.191-.088.382-.177.574-.177.191-.088.478-.088.764-.088h1.816v4.163h-.86v-1.594h-.573v-.266zm-1.243-1.24c0 .088 0 .177.096.265.095.089.095.178.191.178.095 0 .191.088.382.088h1.147v-1.151h-1.243c-.095 0-.286 0-.382.088-.095 0-.191.089-.191.177v.355zm10.419.797c0 .354-.096.62-.191.886a1.922 1.922 0 01-.478.709 2.109 2.109 0 01-.765.442c-.287.09-.573.178-.956.178-.286 0-.573-.089-.86-.178-.287-.088-.478-.265-.765-.443-.191-.177-.382-.354-.478-.62-.095-.265-.191-.531-.191-.797h-.764v1.86h-.861V52.95h.861v1.595h.86c.095-.266.095-.532.287-.71.095-.176.286-.354.478-.53.191-.178.477-.267.669-.355.286-.089.573-.089.86-.089.287 0 .669.089.956.178.287.088.573.265.765.443.191.177.382.442.477.708.096.266.096.62.096.886zm-.86 0c0-.177 0-.443-.096-.62-.095-.177-.191-.354-.287-.443-.095-.177-.286-.266-.478-.354-.191-.089-.382-.089-.573-.089-.191 0-.478 0-.574.089-.191.088-.382.177-.478.354-.095.177-.191.266-.286.443-.096.177-.096.354-.096.62 0 .177 0 .354.096.531.095.178.191.355.286.443.096.178.287.266.478.355.192.088.383.088.574.088.191 0 .478 0 .573-.088.192-.089.383-.177.478-.355.096-.177.192-.265.287-.443.096-.088.096-.354.096-.531zm1.434-2.038h3.823v.62h-1.529v3.455h-.861v-3.455h-1.433v-.62zm9.559 2.303c-.287 0-.478.09-.765.09l-.574.265c-.191.177-.286.355-.478.532-.095.265-.191.531-.286.886h-.956c.191-.62.382-1.063.669-1.418.287-.354.669-.62 1.051-.797l-1.529-1.949h.956l1.338 1.683c.191 0 .382-.088.574-.088v-1.595h.86v1.595c.191 0 .382 0 .573.088l1.339-1.683h.955l-1.529 1.949c.478.177.765.443 1.051.797.287.355.478.797.67 1.417h-.956a10.54 10.54 0 00-.287-.885.932.932 0 00-.478-.532c-.191-.177-.382-.266-.573-.266-.192-.088-.478-.088-.765-.088v1.86h-.86v-1.86zm8.316-1.328l-2.486 3.1h-.86V52.95h.86v3.012l2.486-3.012h.86v4.163h-.86v-3.1zm2.485.088l-.574-.354s.096-.088.096-.177l.287-.266c.095-.088.287-.177.478-.265.191-.089.478-.089.764-.089.287 0 .574 0 .765.089.191.088.382.177.478.265.096.089.191.266.287.355.095.177.095.265.095.443a.965.965 0 01-.286.708c-.192.178-.478.266-.765.266.191 0 .287 0 .478.089.095 0 .287.088.382.177l.287.266c.096.088.096.265.096.443 0 .177 0 .354-.096.531a.722.722 0 01-.382.354l-.574.266c-.191.089-.478.089-.765.089-.286 0-.573 0-.764-.089-.191-.089-.383-.177-.478-.266l-.287-.265c-.096-.089-.096-.089-.096-.178l.574-.442s0 .088.096.088l.191.177c.095.089.191.089.382.177.191.089.287.089.574.089.286 0 .573-.089.764-.177.191-.089.287-.266.287-.532a.484.484 0 00-.287-.443c-.191-.088-.382-.177-.764-.177h-.574v-.531h.574c.286 0 .478-.089.669-.177a.483.483 0 00.286-.443.65.65 0 00-.191-.443c-.191-.178-.382-.178-.669-.178-.191 0-.382 0-.478.09-.095.088-.287.176-.287.176-.477.089-.477.266-.573.355zm4.971 3.012h-.861V52.95h.861v1.595h2.198V52.95h.86v4.163h-.86v-1.86h-2.198v1.86zm5.352-4.074v1.417h1.052c.287 0 .573 0 .86.089l.574.265c.095.089.287.266.287.443.095.177.095.355.095.532 0 .177 0 .354-.095.531-.096.177-.192.355-.287.443-.191.089-.287.266-.574.266-.191.088-.478.088-.764.088h-1.912V52.95h.764v.089zm0 3.543h.861c.287 0 .573-.089.764-.177.192-.089.287-.355.287-.62 0-.177 0-.266-.095-.355-.096-.088-.096-.177-.192-.265-.095-.089-.191-.089-.382-.089h-1.243v1.506z" fill="#787878"/><path d="M66.64 12.668c0 4.96-2.294 9.39-6.787 13.11-1.147.886-2.103 1.33-2.867 1.33-.86 0-1.912-.532-3.06-1.684C50.009 21.881 48 17.806 48 13.288c0-1.506.383-3.1 1.147-4.695.67-1.683 1.817-3.278 3.25-4.961 1.052-1.152 2.008-2.037 3.06-2.658C56.411.354 57.271 0 57.94 0c.67 0 1.625.532 2.773 1.506 4.014 3.278 5.926 6.91 5.926 11.162zM62.816 16.3c0-4.961-1.625-8.682-4.779-11.162-.956-.797-1.72-1.152-2.198-1.152s-1.052.178-1.53.62a7.747 7.747 0 00-1.434 1.772 8.671 8.671 0 00-.764 1.86c-.192.71-.287 1.33-.287 1.95 0 4.872 1.72 8.77 5.257 11.604 1.052.886 1.816 1.329 2.39 1.329 1.147 0 2.007-.886 2.676-2.658.478-1.24.67-2.657.67-4.163zm25.044 6.91c0 2.48-2.39 3.631-7.073 3.631h-8.603c-1.72 0-2.58-.443-2.58-1.417V1.683c0-.886.573-1.329 1.72-1.329h12.809c.573 0 1.051.089 1.433.266.383.177.765.354.956.532.287.354.478 1.151.478 2.126 0 3.809-.478 5.67-1.434 5.67-.573 0-1.242-.532-1.816-1.684-1.051-2.038-1.625-3.1-1.72-3.366-.383-.62-.86-1.063-1.339-1.506-.478-.443-.86-.709-1.242-.798a4.55 4.55 0 00-1.243-.177c-.573-.088-1.147-.088-1.816-.088-.67 0-1.243.177-1.625.531-.287.355-.382.975-.382 1.772v7.441h-.192c1.243.532 2.581 1.152 4.015 2.038 1.434.885 2.868 1.86 4.206 3.012a25.328 25.328 0 014.015 3.897c.956 1.24 1.433 2.215 1.433 3.19zm-5.448-.09c0-.885-.287-1.86-.765-2.922-.478-.975-1.242-2.127-2.198-3.367-.86-1.151-1.816-2.037-2.677-2.746-.86-.709-1.625-1.152-2.39-1.417v11.427c0 .266 0 .532.096.798.096.177.191.354.191.531.096.089.287.089.574.177.287.089.478.089.765.089h3.823c.67 0 1.243-.266 1.816-.709.478-.443.765-1.063.765-1.86zm22.272-8.946c0 .62-.478 1.24-1.338 1.771-.383.178-.669.355-1.052.443-.382.089-.764.178-1.242.178-.191 0-.478-.178-.765-.443a6.58 6.58 0 01-.956-1.152 5.584 5.584 0 00-.86-1.063c-.191-.354-.383-.443-.287-.443-.287 0-1.147.354-2.39.975-1.242.708-1.816 1.24-1.816 1.594 0 .62.096 1.24.383 2.038.286.708.669 1.506 1.147 2.303 1.242 1.86 2.294 2.834 3.25 2.834.573 0 1.338-.265 2.198-.885.191-.089.765-.62 1.625-1.33l.478-.354 1.052.444c-.096.442-1.243 1.683-3.346 3.631-2.103 1.86-3.441 2.747-4.11 2.747-2.199 0-4.015-1.86-5.64-5.581-1.338-3.1-2.007-5.758-2.007-7.973 0-2.392 1.051-5.227 3.25-8.504C94.456 1.772 97.037 0 99.618 0c.478 0 .956.177 1.434.62.478.354.956.886 1.434 1.595.955 1.328 1.433 2.48 1.433 3.277 0 .709-.286 1.24-.86 1.772-.096.089-.382.266-.573.532-.287.177-.67.442-1.148.708h-1.529l-.287-1.594a27.417 27.417 0 00-.573-1.506c-.67-1.24-1.434-1.95-2.199-1.95-.478 0-.956.267-1.434.71-.478.442-.86 1.151-1.242 2.126-.287.708-.478 1.417-.67 2.214-.19.798-.286 1.506-.286 2.038 0 1.417.095 2.746.382 4.075 2.39-1.24 4.302-2.215 5.64-2.747 1.338-.531 2.198-.885 2.676-.885.478 0 .861.088 1.243.354.382.266.669.531.956.886l.573 1.063c0 .266.096.62.096.886zm19.309-7.353a7.72 7.72 0 01-1.052 3.898c-.669 1.152-1.625 2.215-2.867 3.19a14.107 14.107 0 01-3.728 1.77c-1.338.444-2.868.62-4.493.71v10.098c0 .532-.86.798-2.676.798-1.434 0-2.103-.266-2.103-.798V1.417c0-.797 1.051-1.151 3.059-1.151 3.727 0 6.691.266 8.794.886 3.345 1.063 5.066 3.012 5.066 5.67zm-4.684.355c0-1.595-.478-2.924-1.434-3.987-1.051-1.24-2.198-1.86-3.632-1.86-1.53 0-2.294.354-2.294 1.152v11.338c0 .886.191 1.33.478 1.33 2.198 0 3.919-.798 5.161-2.392 1.148-1.418 1.721-3.278 1.721-5.581zm21.603 6.998c0 .62-.478 1.24-1.338 1.771-.383.178-.669.355-1.052.443-.382.089-.764.178-1.242.178-.191 0-.478-.178-.765-.443a6.589 6.589 0 01-.956-1.152 5.587 5.587 0 00-.86-1.063c-.191-.354-.383-.443-.287-.443-.287 0-1.147.354-2.39.975-1.242.708-1.816 1.24-1.816 1.594 0 .62.096 1.24.383 2.038.286.708.669 1.506 1.147 2.303 1.242 1.86 2.294 2.834 3.25 2.834.573 0 1.338-.265 2.198-.885.191-.089.765-.62 1.625-1.33l.478-.354 1.052.444c-.096.442-1.243 1.683-3.346 3.631-2.103 1.86-3.441 2.747-4.11 2.747-2.199 0-4.015-1.86-5.64-5.581-1.338-3.1-2.007-5.758-2.007-7.973 0-2.392 1.051-5.227 3.25-8.504C130.78 1.772 133.265 0 135.941 0c.478 0 .956.177 1.434.62.478.354.956.886 1.434 1.595.956 1.328 1.434 2.48 1.434 3.277 0 .709-.287 1.24-.86 1.772-.096.089-.383.266-.574.532-.287.177-.669.442-1.147.708h-1.529l-.287-1.594a26.618 26.618 0 00-.574-1.506c-.669-1.24-1.433-1.95-2.198-1.95-.478 0-.956.267-1.434.71-.478.442-.86 1.151-1.243 2.126-.286.708-.478 1.417-.669 2.214-.191.798-.287 1.506-.287 2.038 0 1.417.096 2.746.383 4.075 2.39-1.24 4.301-2.215 5.64-2.747 1.338-.531 2.198-.885 2.676-.885.478 0 .86.088 1.243.354.382.266.669.531.956.886l.573 1.063v.886zm17.11-4.695c-.286 0-.573-.177-.86-.532-.287-.354-.573-.886-.765-1.417-.286-.886-.573-1.683-.764-2.303a4.568 4.568 0 00-.669-1.33c-.861-1.328-1.912-2.037-3.155-2.037h-.86c-.86 0-1.53.089-2.008.355-.477.354-.764.886-.764 1.683V26.31c0 .532-.861.886-2.486.886-1.529 0-2.389-.354-2.389-.974V1.152c0-.532.478-.886 1.434-.886h12.33c1.243 0 2.103.531 2.39 1.594.096.443.191 1.33.191 2.658.096 3.278-.478 4.96-1.625 4.96zM109.5 37.295c22.368-2.303 59.647-3.72 59.647-3.72h-59.743c.287.62.383 1.328.383 2.037a4.82 4.82 0 01-.287 1.683zm-12.044-3.721H38s36.993 1.418 59.265 3.72a5.19 5.19 0 01-.287-1.682c.096-.709.191-1.418.478-2.038zm1.721 2.038c0 .443.095.797.19 1.151.574 1.595 2.104 2.746 4.015 2.746 1.912 0 3.537-1.151 4.015-2.746.096-.354.191-.797.191-1.151a3.34 3.34 0 00-.286-1.33c-.574-1.505-2.199-2.568-4.015-2.568-1.816 0-3.441 1.063-4.015 2.569 0 .354-.096.797-.096 1.329z" fill="#F4A876"/></svg>