<svg width="65" height="5" viewBox="0 0 65 5" fill="none" xmlns="http://www.w3.org/2000/svg"><path d="M35.412 3.403c10.844-1.186 28.917-1.915 28.917-1.915H35.366c.139.319.185.684.185 1.049 0 .319-.047.592-.14.866zm-5.839-1.915H.749s17.934.73 28.731 1.915a2.82 2.82 0 01-.139-.866c.047-.365.093-.73.232-1.05zm.834 1.048c0 .228.046.41.093.593.278.821 1.02 1.414 1.946 1.414.927 0 1.715-.593 1.946-1.414.047-.182.093-.41.093-.593 0-.228-.046-.456-.139-.684C34.068 1.077 33.28.53 32.4.53c-.88 0-1.668.547-1.947 1.322 0 .183-.046.41-.046.684z" fill="#F4A876"/></svg>