<svg width="30" height="27" viewBox="0 0 30 27" fill="none" xmlns="http://www.w3.org/2000/svg"><g clip-path="url(#clip0)" fill="#fff"><path d="M14.54 23.168c0-1.391-1.256-2.519-2.807-2.519-1.55 0-2.808 1.128-2.808 2.518 0 1.391 1.257 2.519 2.808 2.519 1.55-.002 2.806-1.128 2.808-2.518zm-4.619 0c0-.898.811-1.625 1.812-1.625 1 0 1.812.727 1.812 1.624 0 .898-.811 1.626-1.812 1.626-1-.001-1.81-.728-1.812-1.625zm12.209 2.518c1.55 0 2.807-1.127 2.807-2.518 0-1.391-1.257-2.519-2.807-2.519-1.551 0-2.808 1.128-2.808 2.519.002 1.39 1.258 2.516 2.807 2.518zm0-4.143c1 0 1.811.727 1.811 1.624 0 .898-.81 1.626-1.811 1.626-1 0-1.812-.728-1.812-1.625s.811-1.624 1.811-1.625zM.636 1.595h3.037c1-.003 1.852.65 2.004 1.535L8.08 16.752c.227 1.321 1.498 2.294 2.988 2.29H25.93c.275 0 .498-.201.498-.447 0-.247-.223-.447-.498-.447H11.07c-1 .003-1.852-.65-2.004-1.535l-.409-2.316h15.22c1.29 0 2.436-.733 2.859-1.825l2.824-7.31a.408.408 0 00-.065-.405.519.519 0 00-.406-.188H6.938L6.66 2.99C6.433 1.67 5.163.697 3.673.7H.636C.361.7.138.901.138 1.147c0 .247.223.447.498.447zm27.753 3.867l-2.595 6.718c-.283.732-1.053 1.223-1.917 1.223H8.498l-1.402-7.94H28.39z"/></g><defs><clipPath id="clip0"><path fill="#fff" transform="translate(.138)" d="M0 0h29.449v26.413H0z"/></clipPath></defs></svg>