<svg width="31" height="31" viewBox="0 0 31 31" fill="none" xmlns="http://www.w3.org/2000/svg"><g clip-path="url(#clip0)" fill="#5C5C5C"><path d="M15.162 27.191a2.956 2.956 0 10-5.911 0 2.956 2.956 0 005.91 0zm-4.863 0a1.907 1.907 0 113.814 0 1.907 1.907 0 01-3.814 0zm12.851 2.955a2.955 2.955 0 10.001-5.91 2.955 2.955 0 000 5.91zm0-4.862a1.907 1.907 0 110 3.814 1.907 1.907 0 010-3.814zM.524 1.872h3.197a2.126 2.126 0 012.11 1.802l2.53 15.988a3.17 3.17 0 003.146 2.686H27.15a.524.524 0 000-1.048H11.507a2.126 2.126 0 01-2.11-1.803l-.43-2.718H24.99c1.356 0 2.564-.86 3.008-2.141l2.973-8.58a.524.524 0 00-.495-.696H7.159L6.866 3.51A3.17 3.17 0 003.721.824H.524a.524.524 0 000 1.048zM29.74 6.411l-2.731 7.884a2.137 2.137 0 01-2.018 1.436H8.8l-1.475-9.32H29.74z"/></g><defs><clipPath id="clip0"><path d="M0 0h31v31H0V0z" fill="#fff"/></clipPath></defs></svg>