<svg width="25" height="26" viewBox="0 0 25 26" fill="none" xmlns="http://www.w3.org/2000/svg"><path d="M11.844 22.95c0-1.39-1.034-2.518-2.309-2.518-1.275 0-2.309 1.128-2.309 2.518 0 1.391 1.034 2.518 2.31 2.518 1.273-.001 2.306-1.128 2.308-2.518zm-3.799 0c0-.897.667-1.625 1.49-1.625s1.49.728 1.49 1.625c0 .898-.667 1.625-1.49 1.625-.822 0-1.489-.728-1.49-1.625zm10.039 2.518c1.276 0 2.31-1.127 2.31-2.518 0-1.39-1.034-2.518-2.31-2.518-1.275 0-2.308 1.128-2.308 2.518.001 1.39 1.034 2.517 2.308 2.518zm0-4.143c.823 0 1.49.728 1.49 1.625 0 .898-.667 1.625-1.49 1.625-.822 0-1.49-.727-1.49-1.625.002-.897.668-1.624 1.49-1.625zM.41 1.378h2.497c.822-.004 1.523.649 1.648 1.535l1.977 13.622c.187 1.32 1.231 2.294 2.457 2.289h12.22c.227 0 .41-.2.41-.447 0-.246-.183-.446-.41-.446H8.99c-.822.003-1.523-.65-1.648-1.536l-.336-2.316H19.52c1.06 0 2.003-.732 2.35-1.824l2.323-7.31a.48.48 0 00-.053-.406.401.401 0 00-.334-.187H5.593l-.23-1.579C5.178 1.453 4.134.48 2.908.485H.41c-.227 0-.41.2-.41.445 0 .247.183.447.41.447zm22.822 3.867l-2.134 6.717c-.233.733-.866 1.224-1.577 1.224H6.875L5.722 5.245h17.51z" fill="#F4A876"/></svg>