<svg width="15" height="15" viewBox="0 0 15 15" fill="none" xmlns="http://www.w3.org/2000/svg"><g clip-path="url(#clip0)" fill="#ED5959"><path d="M9.569 5.435a.351.351 0 00-.352.35v6.64a.351.351 0 00.703 0v-6.64a.351.351 0 00-.351-.35zm-4.145 0a.351.351 0 00-.351.35v6.64a.351.351 0 00.702 0v-6.64a.351.351 0 00-.351-.35z"/><path d="M2.403 4.466v8.655c0 .511.187.992.515 1.336.326.346.78.542 1.255.543h6.647c.475 0 .929-.197 1.255-.543.328-.344.515-.825.515-1.336V4.466a1.342 1.342 0 00-.344-2.64h-1.799v-.438A1.38 1.38 0 009.057 0h-3.12a1.38 1.38 0 00-1.391 1.388v.439H2.747a1.342 1.342 0 00-.344 2.639zm8.417 9.831H4.173c-.6 0-1.068-.516-1.068-1.176V4.497h8.783v8.624c0 .66-.468 1.176-1.068 1.176zM5.248 1.387a.676.676 0 01.689-.684h3.12a.677.677 0 01.688.685v.439H5.248v-.44zM2.747 2.53h9.499a.632.632 0 010 1.265H2.747a.632.632 0 110-1.265z"/><path d="M7.496 5.435a.351.351 0 00-.351.35v6.64a.351.351 0 00.703 0v-6.64a.351.351 0 00-.352-.35z"/></g><defs><clipPath id="clip0"><path fill="#fff" d="M0 0h15v15H0z"/></clipPath></defs></svg>